Coordinates
version=1
nRows=7
nColumns=40
inDegrees=yes

Units are S.I. units (second, meters, Newtons, ...)
Angles are in degrees.

endheader
time	pelvis_tilt	pelvis_list	pelvis_rotation	pelvis_tx	pelvis_ty	pelvis_tz	hip_flexion_r	hip_adduction_r	hip_rotation_r	knee_angle_r	knee_angle_r_beta	ankle_angle_r	subtalar_angle_r	mtp_angle_r	hip_flexion_l	hip_adduction_l	hip_rotation_l	knee_angle_l	knee_angle_l_beta	ankle_angle_l	subtalar_angle_l	mtp_angle_l	lumbar_extension	lumbar_bending	lumbar_rotation	arm_flex_r	arm_add_r	arm_rot_r	elbow_flex_r	pro_sup_r	wrist_flex_r	wrist_dev_r	arm_flex_l	arm_add_l	arm_rot_l	elbow_flex_l	pro_sup_l	wrist_flex_l	wrist_dev_l
     34.65000000	     -9.64618077	     -5.40926373	      2.66740799	      1.12638015	      0.91725765	      0.45610843	      2.12611038	     -0.38591746	    -16.74968009	     19.78351684	     19.78351684	     15.67765566	      3.31549073	     -6.02872356	     32.11694657	     -4.38633484	      1.17911549	     26.74797158	     26.74797158	      6.85949462	    -16.52622210	      9.62111747	    -10.17723252	      6.28189967	      4.96496688	     24.70133446	    -13.83750893	      7.94318224	     81.93644508	     45.02021128	      0.00000000	      0.00000000	     -4.08932144	     -7.87662203	    -10.38173536	     39.42686613	     46.31564691	      0.00000000	      0.00000000
     34.66228571	     -9.71000379	     -5.32957649	      2.66885879	      1.12719979	      0.91826749	      0.45317796	      2.63866584	     -0.93600877	    -16.39315010	     21.46469036	     21.46469036	     14.02194223	      1.95252754	     -9.43851093	     31.60648853	     -4.13008093	      1.14457098	     26.86933597	     26.86933597	      8.21961185	    -16.26453364	     11.40996156	    -10.08716464	      6.24549365	      4.30436957	     24.11637722	    -12.77258305	      7.10112782	     77.49095332	     45.19594098	      0.00000000	      0.00000000	     -5.05552336	     -8.26560451	     -9.69732513	     42.58289537	     46.26161714	      0.00000000	      0.00000000
     34.67457143	     -9.78093549	     -5.24360151	      2.59550500	      1.12791335	      0.91918041	      0.45031093	      3.57156283	     -1.64370297	    -16.07775213	     24.00352879	     24.00352879	     13.12852640	      0.97292983	    -10.40257911	     30.96582496	     -3.94467648	      0.87730252	     26.70500669	     26.70500669	      8.78988351	    -16.07883193	     11.26773388	    -10.06594962	      6.26623694	      4.70855843	     22.50573708	    -13.35746906	      7.18211966	     75.49344087	     45.25219085	      0.00000000	      0.00000000	     -4.61261224	     -8.27693079	     -9.69076544	     43.53511105	     46.27705757	      0.00000000	      0.00000000
     34.68685714	     -9.85949360	     -5.21092703	      2.53236300	      1.12842300	      0.91997446	      0.44764432	      4.57343307	     -2.19311643	    -15.44872572	     26.38802269	     26.38802269	     10.71533867	     -1.26496467	    -14.86778238	     30.36362490	     -3.81434416	      0.67984991	     26.55766236	     26.55766236	      9.32629981	    -15.87151598	     11.02724152	     -9.99864493	      6.27816794	      4.17041267	     22.05413534	    -12.75205085	      7.07528701	     70.67791953	     45.40105664	      0.00000000	      0.00000000	     -5.44764836	     -8.68880922	     -9.24435968	     46.57364336	     46.29266262	      0.00000000	      0.00000000
     34.69914286	     -9.90172160	     -5.21748564	      2.38668127	      1.12875271	      0.92076055	      0.44521490	      5.97402042	     -2.69621430	    -14.48463717	     29.58059324	     29.58059324	      9.24427932	     -3.54951517	    -15.78893696	     29.70145472	     -3.78021842	      0.40370870	     26.35553634	     26.35553634	      9.78551541	    -15.65123108	     10.65670921	    -10.02988745	      6.37333379	      4.39877358	     20.91377410	    -12.75607449	      6.47991940	     67.37667633	     45.52121320	      0.00000000	      0.00000000	     -5.27857987	     -8.79287571	     -9.13892349	     47.97803934	     46.31495008	      0.00000000	      0.00000000
     34.71142857	     -9.97096060	     -5.07492851	      2.25180841	      1.12885069	      0.92128702	      0.44264589	      7.68845863	     -3.52944085	    -13.85701458	     33.28931359	     33.28931359	      7.86605579	     -5.05095618	    -16.26988033	     29.06882391	     -3.58056796	      0.05493141	     26.14375526	     26.14375526	     10.27482372	    -15.39508640	     10.36665061	    -10.07101339	      6.31532750	      4.64728525	     19.40523348	    -13.14106190	      6.38247127	     65.30696527	     45.58543200	      0.00000000	      0.00000000	     -4.79184902	     -8.88011014	     -9.16030334	     48.92492274	     46.33589458	      0.00000000	      0.00000000
     34.72371429	    -10.08745642	     -5.04965926	      2.05536160	      1.12870268	      0.92166486	      0.44046626	      9.67177539	     -4.03374324	    -12.76844661	     37.12055962	     37.12055962	      6.10566311	     -7.44284937	    -16.43874244	     28.56375451	     -3.53937827	     -0.27049161	     26.02650540	     26.02650540	     10.71210565	    -15.18909132	     10.01351774	    -10.03752016	      6.37955796	      4.93624615	     18.13637844	    -13.31579558	      5.99493351	     62.18709988	     45.69625844	      0.00000000	      0.00000000	     -4.50950614	     -9.03242553	     -9.01570153	     50.38030125	     46.34773236	      0.00000000	      0.00000000
